<svg viewBox="0 0 96 96" fill="none" xmlns="http://www.w3.org/2000/svg">
  <rect width="96" height="96" rx="22" fill="url(#g01)"/>
  <path d="M48 14C33.64 14 22 25.64 22 40c0 20.5 26 50 26 50s26-29.5 26-50C74 25.64 62.36 14 48 14z" fill="#fff"/>
  <path d="M48 28c-6.63 0-12 5.37-12 12s5.37 12 12 12c2.2 0 4.26-.6 6.03-1.64L52 56h-8v-6h6.5l-1.8-3.2A11.9 11.9 0 0 1 48 52c-6.63 0-12-5.37-12-12s5.37-12 12-12 12 5.37 12 12h8c0-11.05-8.95-20-20-20z" fill="url(#g01)"/>
  <defs>
    <linearGradient id="g01" x1="8" y1="4" x2="88" y2="92" gradientUnits="userSpaceOnUse">
      <stop stop-color="#ff3d81"/><stop offset="1" stop-color="#7c5cff"/>
    </linearGradient>
  </defs>
</svg>
