<svg viewBox="0 0 96 96" fill="none" xmlns="http://www.w3.org/2000/svg">
  <rect width="96" height="96" rx="22" fill="#081510"/>
  <circle cx="48" cy="48" r="34" stroke="#00e676" stroke-width="2.5"/>
  <circle cx="48" cy="48" r="28" fill="#0a1a12" stroke="#00e676" stroke-width="1" opacity="0.5"/>
  <path d="M48 24c-8 0-14 6-14 13 0 3 1.5 5.5 3.5 7-2.5 2-4 5.5-4 9.5 0 6.5 6 12 14.5 12h0c8.5 0 14.5-5.5 14.5-12 0-4-1.5-7.5-4-9.5 2-1.5 3.5-4 3.5-7 0-7-6-13-14-13z" fill="#ff3d81"/>
  <path d="M48 32v28M40 40c2-2 5-3 8-3s6 1 8 3M38 52c3 4 7 6 10 6s7-2 10-6" stroke="#06060b" stroke-width="2.2" stroke-linecap="round"/>
  <text x="48" y="78" text-anchor="middle" fill="#00e676" font-family="monospace" font-size="16" font-weight="700">$</text>
</svg>
