<svg viewBox="0 0 96 96" fill="none" xmlns="http://www.w3.org/2000/svg">
<defs><linearGradient id="g20" x1="8" y1="4" x2="88" y2="92" gradientUnits="userSpaceOnUse"><stop stop-color="#ff3d81"/><stop offset="1" stop-color="#7c5cff"/></linearGradient></defs><rect width="96" height="96" rx="22" fill="url(#g20)"/>

    <path d="M48 16c-4 0-8 4-8 10 0 2 0 4 2 6l-12 20h36L54 32c2-2 2-4 2-6 0-6-4-10-8-10z" fill="#f4f4f8"/>
    
  <circle cx="42.4" cy="35.2" r="3.15" fill="#f4f4f8"/>
  <circle cx="53.6" cy="35.2" r="3.15" fill="#f4f4f8"/>
  <circle cx="43.1" cy="34.5" r="1.26" fill="#06060b"/>
  <circle cx="54.3" cy="34.5" r="1.26" fill="#06060b"/>
  <path d="M41 43.6 Q48 50.6 55 43.6" stroke="#f4f4f8" stroke-width="2.0999999999999996" stroke-linecap="round" fill="none"/>
    <ellipse cx="48" cy="72" rx="20" ry="4" fill="#06060b" opacity="0.3"/>
</svg>
