<svg viewBox="0 0 96 96" fill="none" xmlns="http://www.w3.org/2000/svg">
<defs><linearGradient id="g50" x1="8" y1="4" x2="88" y2="92" gradientUnits="userSpaceOnUse"><stop stop-color="#ff3d81"/><stop offset="1" stop-color="#ffb300"/></linearGradient></defs><rect width="96" height="96" rx="22" fill="url(#g50)"/>

    <path d="M48 20c-8 10-16 14-16 26 0 10 8 18 16 18s16-8 16-18c0-12-8-16-16-26z" fill="#ffb300"/>
    <path d="M48 32c-4 6-8 8-8 14 0 6 4 10 8 10s8-4 8-10c0-6-4-8-8-14z" fill="#ff3d81"/>
    
  <circle cx="43.2" cy="49.6" r="2.6999999999999997" fill="#f4f4f8"/>
  <circle cx="52.8" cy="49.6" r="2.6999999999999997" fill="#f4f4f8"/>
  <circle cx="43.8" cy="49" r="1.08" fill="#06060b"/>
  <circle cx="53.4" cy="49" r="1.08" fill="#06060b"/>
  <path d="M42 56.8 Q48 62.8 54 56.8" stroke="#f4f4f8" stroke-width="1.7999999999999998" stroke-linecap="round" fill="none"/>
</svg>
