<svg viewBox="0 0 96 96" fill="none" xmlns="http://www.w3.org/2000/svg">
<defs><linearGradient id="gold" x1="20" y1="10" x2="76" y2="86" gradientUnits="userSpaceOnUse">
  <stop stop-color="#fff8dc"/><stop offset="0.3" stop-color="#ffd700"/>
  <stop offset="0.7" stop-color="#daa520"/><stop offset="1" stop-color="#b8860b"/>
</linearGradient><radialGradient id="neb" cx="50%" cy="40%" r="60%">
  <stop stop-color="#7c5cff" stop-opacity="0.6"/><stop offset="0.5" stop-color="#ff3d81" stop-opacity="0.4"/>
  <stop offset="1" stop-color="#06060b"/>
</radialGradient></defs>
<rect width="96" height="96" rx="22" fill="#0c0a08"/>
<rect x="8" y="8" width="80" height="80" rx="14" fill="url(#neb)"/>
<path d="M8 20 Q8 8 20 8 M76 8 Q88 8 88 20 M88 76 Q88 88 76 88 M20 88 Q8 88 8 76" stroke="url(#gold)" stroke-width="4" fill="none" stroke-linecap="round"/>
<path d="M14 14 Q14 10 18 10 M82 10 Q86 10 86 14 M86 82 Q86 86 82 86 M18 86 Q14 86 14 82" stroke="#ffd700" stroke-width="1.5" fill="none" opacity="0.6"/>
<circle cx="14" cy="14" r="3" fill="url(#gold)"/><circle cx="82" cy="14" r="3" fill="url(#gold)"/>
<circle cx="14" cy="82" r="3" fill="url(#gold)"/><circle cx="82" cy="82" r="3" fill="url(#gold)"/>

  <text x="48" y="54" text-anchor="middle" fill="none" stroke="#5a4000" stroke-width="2.5"
    font-family="Georgia,serif" font-size="36" font-weight="900" letter-spacing="-1">GM</text>
  <text x="48" y="54" text-anchor="middle" fill="url(#gold)"
    font-family="Georgia,serif" font-size="36" font-weight="900" letter-spacing="-1">GM</text>
</svg>
