<svg viewBox="0 0 96 96" fill="none" xmlns="http://www.w3.org/2000/svg">
<defs><linearGradient id="gold" x1="20" y1="10" x2="76" y2="86" gradientUnits="userSpaceOnUse">
  <stop stop-color="#fff8dc"/><stop offset="0.3" stop-color="#ffd700"/>
  <stop offset="0.7" stop-color="#daa520"/><stop offset="1" stop-color="#b8860b"/>
</linearGradient><radialGradient id="c1" cx="30%" cy="30%" r="50%"><stop stop-color="#ff3d81" stop-opacity="0.5"/><stop offset="1" stop-color="transparent"/></radialGradient>
<radialGradient id="c2" cx="70%" cy="60%" r="45%"><stop stop-color="#7c5cff" stop-opacity="0.5"/><stop offset="1" stop-color="transparent"/></radialGradient></defs>
<rect width="96" height="96" rx="22" fill="#06060b"/>
<rect width="96" height="96" rx="22" fill="url(#c1)"/><rect width="96" height="96" rx="22" fill="url(#c2)"/>

  <circle cx="22" cy="24" r="1.2" fill="#fff" opacity="0.8"/>
  <circle cx="74" cy="20" r="1" fill="#fff" opacity="0.6"/>
  <circle cx="68" cy="72" r="1.2" fill="#fff" opacity="0.7"/>
  <circle cx="18" cy="68" r="0.8" fill="#fff" opacity="0.5"/>
  <circle cx="48" cy="16" r="0.8" fill="#ffd700" opacity="0.8"/>
<circle cx="60" cy="32" r="8" fill="#ffd700" opacity="0.15"/>

  <path d="M8 8h12v3H11v9H8V8z" fill="url(#gold)" opacity="0.9"/>
  <path d="M88 8H76v3h9v9h3V8z" fill="url(#gold)" opacity="0.9"/>
  <path d="M8 88h12v-3H11V76H8v12z" fill="url(#gold)" opacity="0.9"/>
  <path d="M88 88H76v-3h9V76h3v12z" fill="url(#gold)" opacity="0.9"/>
  <rect x="6" y="6" width="84" height="84" rx="16" stroke="url(#gold)" stroke-width="3" fill="none"/>
  <rect x="10" y="10" width="76" height="76" rx="14" stroke="url(#gold)" stroke-width="1" fill="none" opacity="0.5"/>

  <text x="48" y="56" text-anchor="middle" fill="none" stroke="#5a4000" stroke-width="2.5"
    font-family="Georgia,serif" font-size="34" font-weight="900" letter-spacing="-1">GM</text>
  <text x="48" y="56" text-anchor="middle" fill="url(#gold)"
    font-family="Georgia,serif" font-size="34" font-weight="900" letter-spacing="-1">GM</text>
</svg>
