<svg viewBox="0 0 96 96" fill="none" xmlns="http://www.w3.org/2000/svg">
<defs>
  <linearGradient id="leg" x1="0" y1="0" x2="96" y2="96" gradientUnits="userSpaceOnUse">
    <stop stop-color="#FFB300"/><stop offset="0.25" stop-color="#FF6B35"/>
    <stop offset="0.55" stop-color="#FF3D81"/><stop offset="0.8" stop-color="#C77DFF"/>
    <stop offset="1" stop-color="#7C5CFF"/>
  </linearGradient>
  <linearGradient id="legGold" x1="16" y1="8" x2="80" y2="88" gradientUnits="userSpaceOnUse">
    <stop stop-color="#FFF8DC"/><stop offset="0.35" stop-color="#FFB300"/>
    <stop offset="0.7" stop-color="#FF8C00"/><stop offset="1" stop-color="#E65100"/>
  </linearGradient>
  <linearGradient id="legCopper" x1="8" y1="8" x2="88" y2="88" gradientUnits="userSpaceOnUse">
    <stop stop-color="#FFD180"/><stop offset="0.5" stop-color="#E65100"/>
    <stop offset="1" stop-color="#BF360C"/>
  </linearGradient>
  <radialGradient id="legNeb" cx="50%" cy="35%" r="65%">
    <stop stop-color="#FF8C00" stop-opacity="0.55"/>
    <stop offset="0.35" stop-color="#FF3D81" stop-opacity="0.35"/>
    <stop offset="0.65" stop-color="#7C5CFF" stop-opacity="0.25"/>
    <stop offset="1" stop-color="#1a0a00"/>
  </radialGradient>
  <radialGradient id="legGlow" cx="50%" cy="50%" r="45%">
    <stop stop-color="#FFB300" stop-opacity="0.4"/>
    <stop offset="1" stop-color="transparent"/>
  </radialGradient>
</defs>

<rect width="96" height="96" rx="22" fill="#120800"/>
<rect x="8" y="8" width="80" height="80" rx="14" fill="url(#legNeb)"/>
<path d="M8 22 Q8 8 22 8 M74 8 Q88 8 88 22 M88 74 Q88 88 74 88 M22 88 Q8 88 8 74" stroke="url(#legCopper)" stroke-width="5" fill="none"/>
<circle cx="12" cy="12" r="4" fill="url(#legGold)"/><circle cx="84" cy="12" r="4" fill="url(#legGold)"/>
<circle cx="12" cy="84" r="4" fill="url(#legGold)"/><circle cx="84" cy="84" r="4" fill="url(#legGold)"/>

  <text x="48" y="55" text-anchor="middle" fill="#5a2800" font-family="Georgia,serif" font-size="36" font-weight="900" letter-spacing="-1">GM</text>
  <text x="48" y="54" text-anchor="middle" fill="url(#legGold)" font-family="Georgia,serif" font-size="36" font-weight="900" letter-spacing="-1">GM</text>
  <circle cx="20" cy="22" r="1.2" fill="#FFD180" opacity="0.9"/>
  <circle cx="76" cy="18" r="1" fill="#fff" opacity="0.7"/>
  <circle cx="70" cy="74" r="1.3" fill="#FFB300" opacity="0.8"/>
  <circle cx="24" cy="70" r="0.9" fill="#FF8C00" opacity="0.6"/>
  <circle cx="48" cy="14" r="0.8" fill="#fff" opacity="0.8"/>
  <circle cx="82" cy="48" r="0.7" fill="#FFD180" opacity="0.7"/>
</svg>
