<svg viewBox="0 0 96 96" fill="none" xmlns="http://www.w3.org/2000/svg">
<defs>
  <linearGradient id="leg" x1="0" y1="0" x2="96" y2="96" gradientUnits="userSpaceOnUse">
    <stop stop-color="#FFB300"/><stop offset="0.25" stop-color="#FF6B35"/>
    <stop offset="0.55" stop-color="#FF3D81"/><stop offset="0.8" stop-color="#C77DFF"/>
    <stop offset="1" stop-color="#7C5CFF"/>
  </linearGradient>
  <linearGradient id="legGold" x1="16" y1="8" x2="80" y2="88" gradientUnits="userSpaceOnUse">
    <stop stop-color="#FFF8DC"/><stop offset="0.35" stop-color="#FFB300"/>
    <stop offset="0.7" stop-color="#FF8C00"/><stop offset="1" stop-color="#E65100"/>
  </linearGradient>
  <linearGradient id="legCopper" x1="8" y1="8" x2="88" y2="88" gradientUnits="userSpaceOnUse">
    <stop stop-color="#FFD180"/><stop offset="0.5" stop-color="#E65100"/>
    <stop offset="1" stop-color="#BF360C"/>
  </linearGradient>
  <radialGradient id="legNeb" cx="50%" cy="35%" r="65%">
    <stop stop-color="#FF8C00" stop-opacity="0.55"/>
    <stop offset="0.35" stop-color="#FF3D81" stop-opacity="0.35"/>
    <stop offset="0.65" stop-color="#7C5CFF" stop-opacity="0.25"/>
    <stop offset="1" stop-color="#1a0a00"/>
  </radialGradient>
  <radialGradient id="legGlow" cx="50%" cy="50%" r="45%">
    <stop stop-color="#FFB300" stop-opacity="0.4"/>
    <stop offset="1" stop-color="transparent"/>
  </radialGradient>
</defs>

<rect width="96" height="96" rx="22" fill="#1a0a00"/>

  <rect x="5" y="5" width="86" height="86" rx="17" fill="url(#legNeb)"/>
  <rect x="5" y="5" width="86" height="86" rx="17" fill="url(#legGlow)"/>
  <rect x="5" y="5" width="86" height="86" rx="17" stroke="url(#legCopper)" stroke-width="3.5" fill="none"/>
  <rect x="9" y="9" width="78" height="78" rx="15" stroke="url(#legGold)" stroke-width="1" fill="none" opacity="0.6"/>
  <path d="M9 18 Q9 9 18 9 M78 9 Q87 9 87 18 M87 78 Q87 87 78 87 M18 87 Q9 87 9 78" stroke="#FFB300" stroke-width="2" fill="none" opacity="0.5"/>
<path d="M24 58 V38 L34 46 L48 28 L62 46 L72 38 V58 Z" fill="url(#legGold)" stroke="#E65100" stroke-width="1"/>
<rect x="24" y="58" width="48" height="8" rx="2" fill="#FF6B35"/>
<circle cx="34" cy="38" r="3" fill="#FF3D81"/><circle cx="48" cy="32" r="3" fill="#7C5CFF"/>
<circle cx="62" cy="38" r="3" fill="#00E676"/>
<text x="48" y="52" text-anchor="middle" fill="#3d2e00" font-family="Georgia,serif" font-size="12" font-weight="900">GM</text>
</svg>
