<svg viewBox="0 0 96 96" fill="none" xmlns="http://www.w3.org/2000/svg">
<defs>
  <linearGradient id="leg" x1="0" y1="0" x2="96" y2="96" gradientUnits="userSpaceOnUse">
    <stop stop-color="#FFB300"/><stop offset="0.25" stop-color="#FF6B35"/>
    <stop offset="0.55" stop-color="#FF3D81"/><stop offset="0.8" stop-color="#C77DFF"/>
    <stop offset="1" stop-color="#7C5CFF"/>
  </linearGradient>
  <linearGradient id="legGold" x1="16" y1="8" x2="80" y2="88" gradientUnits="userSpaceOnUse">
    <stop stop-color="#FFF8DC"/><stop offset="0.35" stop-color="#FFB300"/>
    <stop offset="0.7" stop-color="#FF8C00"/><stop offset="1" stop-color="#E65100"/>
  </linearGradient>
  <linearGradient id="legCopper" x1="8" y1="8" x2="88" y2="88" gradientUnits="userSpaceOnUse">
    <stop stop-color="#FFD180"/><stop offset="0.5" stop-color="#E65100"/>
    <stop offset="1" stop-color="#BF360C"/>
  </linearGradient>
  <radialGradient id="legNeb" cx="50%" cy="35%" r="65%">
    <stop stop-color="#FF8C00" stop-opacity="0.55"/>
    <stop offset="0.35" stop-color="#FF3D81" stop-opacity="0.35"/>
    <stop offset="0.65" stop-color="#7C5CFF" stop-opacity="0.25"/>
    <stop offset="1" stop-color="#1a0a00"/>
  </radialGradient>
  <radialGradient id="legGlow" cx="50%" cy="50%" r="45%">
    <stop stop-color="#FFB300" stop-opacity="0.4"/>
    <stop offset="1" stop-color="transparent"/>
  </radialGradient>
</defs>

<rect width="96" height="96" rx="22" fill="#1a0800"/>
<rect width="96" height="96" rx="22" fill="url(#legNeb)"/>
<path d="M48 14c-10 14-18 18-18 30 0 10 8 18 18 18s18-8 18-18c0-12-8-16-18-30z" fill="url(#legGold)"/>
<path d="M48 28c-5 8-8 10-8 16 0 6 4 10 8 10s8-4 8-10c0-6-3-8-8-16z" fill="#FF6B35"/>
<text x="48" y="72" text-anchor="middle" fill="url(#legGold)" font-family="Georgia,serif" font-size="16" font-weight="900">GM</text>
  <circle cx="20" cy="22" r="1.2" fill="#FFD180" opacity="0.9"/>
  <circle cx="76" cy="18" r="1" fill="#fff" opacity="0.7"/>
  <circle cx="70" cy="74" r="1.3" fill="#FFB300" opacity="0.8"/>
  <circle cx="24" cy="70" r="0.9" fill="#FF8C00" opacity="0.6"/>
  <circle cx="48" cy="14" r="0.8" fill="#fff" opacity="0.8"/>
  <circle cx="82" cy="48" r="0.7" fill="#FFD180" opacity="0.7"/>
</svg>
