<svg viewBox="0 0 96 96" fill="none" xmlns="http://www.w3.org/2000/svg">
<defs>
      <linearGradient id="bg" x1="0" y1="0" x2="0" y2="96"><stop stop-color="#3a3a4a"/><stop offset="1" stop-color="#1e1e2e"/></linearGradient>
      <linearGradient id="hand" x1="30" y1="32" x2="70" y2="84"><stop stop-color="#e8e8f0"/><stop offset="1" stop-color="#b0b0bc"/></linearGradient>
      <linearGradient id="eye" x1="0" y1="0" x2="1" y2="1"><stop stop-color="#888899"/><stop offset="1" stop-color="#666677"/></linearGradient>
      <linearGradient id="pupil" x1="0" y1="0" x2="1" y2="1"><stop stop-color="#2a2a3a"/><stop offset="1" stop-color="#2a2a3a"/></linearGradient>
      <linearGradient id="mouth" x1="0" y1="0" x2="1" y2="1"><stop stop-color="#2a2a3a"/><stop offset="1" stop-color="#2a2a3a"/></linearGradient>
    </defs>
<rect width="96" height="96" rx="22" fill="url(#bg)"/>
<rect x="6" y="6" width="84" height="84" rx="18" stroke="#55556a" stroke-width="1.5" fill="none" opacity="0.5"/>
<path d="M30 60c0-16 8-28 18-28 6 0 10 4 12 8 2-6 8-10 16-10 10 0 16 10 16 24v22H30V60z" fill="url(#hand)" stroke="none"/>
<circle cx="42" cy="46" r="5" fill="url(#eye)"/>
<circle cx="58" cy="46" r="5" fill="url(#eye)"/>
<circle cx="43" cy="45" r="2" fill="url(#pupil)"/>
<circle cx="59" cy="45" r="2" fill="url(#pupil)"/>
<path d="M38 58 Q48 66 58 58" stroke="url(#mouth)" stroke-width="2.5" stroke-linecap="round" fill="none"/>
</svg>
