<svg viewBox="0 0 96 96" fill="none" xmlns="http://www.w3.org/2000/svg">
<defs>
      <linearGradient id="bg" x1="0" y1="0" x2="96" y2="96"><stop stop-color="#1565c0"/><stop offset="0.5" stop-color="#2196f3"/><stop offset="1" stop-color="#0d2a5c"/></linearGradient>
      <linearGradient id="hand" x1="30" y1="32" x2="70" y2="84"><stop stop-color="#ffffff"/><stop offset="1" stop-color="#bbdefb"/></linearGradient>
      <linearGradient id="eye" x1="0" y1="0" x2="1" y2="1"><stop stop-color="#42a5f5"/><stop offset="1" stop-color="#1976d2"/></linearGradient>
      <linearGradient id="pupil" x1="0" y1="0" x2="1" y2="1"><stop stop-color="#0d2a5c"/><stop offset="1" stop-color="#0d2a5c"/></linearGradient>
      <linearGradient id="mouth" x1="0" y1="0" x2="1" y2="1"><stop stop-color="#0d2a5c"/><stop offset="1" stop-color="#0d2a5c"/></linearGradient>
    </defs>
<rect width="96" height="96" rx="22" fill="url(#bg)"/>
<circle cx="48" cy="48" r="38" stroke="#42a5f5" stroke-width="1" fill="none" opacity="0.3"/>
<path d="M30 60c0-16 8-28 18-28 6 0 10 4 12 8 2-6 8-10 16-10 10 0 16 10 16 24v22H30V60z" fill="url(#hand)" stroke="none"/>
<circle cx="42" cy="46" r="5" fill="url(#eye)"/>
<circle cx="58" cy="46" r="5" fill="url(#eye)"/>
<circle cx="43" cy="45" r="2" fill="url(#pupil)"/>
<circle cx="59" cy="45" r="2" fill="url(#pupil)"/>
<path d="M38 58 Q48 66 58 58" stroke="url(#mouth)" stroke-width="2.5" stroke-linecap="round" fill="none"/>
</svg>
