<svg viewBox="0 0 96 96" fill="none" xmlns="http://www.w3.org/2000/svg">
<defs>
      <linearGradient id="bg" x1="0" y1="0" x2="96" y2="96"><stop stop-color="#4a148c"/><stop offset="0.4" stop-color="#7c5cff"/><stop offset="1" stop-color="#1a0a28"/></linearGradient>
      <linearGradient id="hand" x1="30" y1="32" x2="70" y2="84"><stop stop-color="#ffffff"/><stop offset="1" stop-color="#e8d4ff"/></linearGradient>
      <linearGradient id="eye" x1="0" y1="0" x2="1" y2="1"><stop stop-color="#c77dff"/><stop offset="1" stop-color="#ab47bc"/></linearGradient>
      <linearGradient id="pupil" x1="0" y1="0" x2="1" y2="1"><stop stop-color="#2a0840"/><stop offset="1" stop-color="#2a0840"/></linearGradient>
      <linearGradient id="mouth" x1="0" y1="0" x2="1" y2="1"><stop stop-color="#2a0840"/><stop offset="1" stop-color="#2a0840"/></linearGradient>
    </defs>
<rect width="96" height="96" rx="22" fill="url(#bg)"/>
<rect x="6" y="6" width="84" height="84" rx="18" stroke="#c77dff" stroke-width="2" fill="none" opacity="0.5"/><circle cx="20" cy="20" r="1" fill="#c77dff" opacity="0.8"/><circle cx="76" cy="24" r="1.2" fill="#ff3d81" opacity="0.6"/>
<path d="M30 60c0-16 8-28 18-28 6 0 10 4 12 8 2-6 8-10 16-10 10 0 16 10 16 24v22H30V60z" fill="url(#hand)" stroke="none"/>
<circle cx="42" cy="46" r="5" fill="url(#eye)"/>
<circle cx="58" cy="46" r="5" fill="url(#eye)"/>
<circle cx="43" cy="45" r="2" fill="url(#pupil)"/>
<circle cx="59" cy="45" r="2" fill="url(#pupil)"/>
<path d="M38 58 Q48 66 58 58" stroke="url(#mouth)" stroke-width="2.5" stroke-linecap="round" fill="none"/>
</svg>
