<svg viewBox="0 0 96 96" fill="none" xmlns="http://www.w3.org/2000/svg">
<defs>
      <radialGradient id="bg" cx="50%" cy="35%" r="70%"><stop stop-color="#FF8C00" stop-opacity="0.7"/><stop offset="0.4" stop-color="#FF3D81" stop-opacity="0.4"/><stop offset="1" stop-color="#1a0a00"/></radialGradient>
      <linearGradient id="hand" x1="30" y1="32" x2="70" y2="84"><stop stop-color="#FFF8DC"/><stop offset="0.5" stop-color="#FFB300"/><stop offset="1" stop-color="#FF8C00"/></linearGradient>
      <linearGradient id="eye" x1="0" y1="0" x2="1" y2="1"><stop stop-color="#FF3D81"/><stop offset="1" stop-color="#FF6B35"/></linearGradient>
      <linearGradient id="pupil" x1="0" y1="0" x2="1" y2="1"><stop stop-color="#5a2800"/><stop offset="1" stop-color="#5a2800"/></linearGradient>
      <linearGradient id="mouth" x1="0" y1="0" x2="1" y2="1"><stop stop-color="#5a2800"/><stop offset="1" stop-color="#5a2800"/></linearGradient>
    </defs>
<rect width="96" height="96" rx="22" fill="url(#bg)"/>
<rect x="5" y="5" width="86" height="86" rx="17" stroke="#FFB300" stroke-width="2.5" fill="none"/><circle cx="22" cy="22" r="1" fill="#FFD180"/><circle cx="74" cy="70" r="1.2" fill="#FFB300"/>
<path d="M30 60c0-16 8-28 18-28 6 0 10 4 12 8 2-6 8-10 16-10 10 0 16 10 16 24v22H30V60z" fill="url(#hand)" stroke="none"/>
<circle cx="42" cy="46" r="5" fill="url(#eye)"/>
<circle cx="58" cy="46" r="5" fill="url(#eye)"/>
<circle cx="43" cy="45" r="2" fill="url(#pupil)"/>
<circle cx="59" cy="45" r="2" fill="url(#pupil)"/>
<path d="M38 58 Q48 66 58 58" stroke="url(#mouth)" stroke-width="2.5" stroke-linecap="round" fill="none"/>
</svg>
